<svg width="48" height="49" viewBox="0 0 48 49" fill="none" xmlns="http://www.w3.org/2000/svg">
<g clip-path="url(#clip0_26_11663)">
<path d="M43.5839 37.692C42.858 39.369 41.9988 40.9126 41.0033 42.3318C39.6463 44.2666 38.5352 45.6058 37.6789 46.3495C36.3516 47.5702 34.9294 48.1954 33.4065 48.2309C32.3132 48.2309 30.9947 47.9198 29.4599 47.2887C27.9201 46.6606 26.5051 46.3495 25.2112 46.3495C23.8542 46.3495 22.3988 46.6606 20.8421 47.2887C19.2831 47.9198 18.0271 48.2487 17.0668 48.2813C15.6064 48.3435 14.1508 47.7006 12.6978 46.3495C11.7704 45.5406 10.6105 44.154 9.22087 42.1896C7.72995 40.0919 6.50422 37.6594 5.54395 34.8861C4.51554 31.8907 4 28.99 4 26.1818C4 22.965 4.69509 20.1906 6.08734 17.8656C7.18153 15.9981 8.63718 14.525 10.4591 13.4435C12.2809 12.3621 14.2495 11.811 16.3694 11.7757C17.5293 11.7757 19.0505 12.1345 20.9408 12.8397C22.8258 13.5472 24.0361 13.906 24.5667 13.906C24.9635 13.906 26.308 13.4865 28.5874 12.6501C30.7428 11.8744 32.562 11.5532 34.0524 11.6797C38.0908 12.0056 41.1247 13.5976 43.1425 16.4657C39.5307 18.654 37.7441 21.7191 37.7797 25.6512C37.8123 28.7139 38.9233 31.2625 41.107 33.2862C42.0966 34.2254 43.2017 34.9513 44.4313 35.4669C44.1646 36.2402 43.8832 36.9809 43.5839 37.692ZM34.322 1.24567C34.322 3.64622 33.445 5.88761 31.6969 7.96221C29.5873 10.4285 27.0357 11.8537 24.2687 11.6288C24.2334 11.3408 24.213 11.0377 24.213 10.7192C24.213 8.41464 25.2162 5.94835 26.9978 3.93181C27.8872 2.91081 29.0185 2.06186 30.3903 1.38463C31.7591 0.717511 33.0539 0.348578 34.2716 0.2854C34.3072 0.606316 34.322 0.927252 34.322 1.24564V1.24567Z" fill="#0B0A0A"/>
</g>
<defs>
<clipPath id="clip0_26_11663">
<rect width="48" height="48" fill="white" transform="translate(0 0.284912)"/>
</clipPath>
</defs>
</svg>
