<svg width="48" height="49" viewBox="0 0 48 49" fill="none" xmlns="http://www.w3.org/2000/svg">
<g clip-path="url(#clip0_26_11666)">
<path d="M48 24.2849C48 11.0301 37.2548 0.284912 24 0.284912C10.7452 0.284912 0 11.0301 0 24.2849C0 36.2638 8.77641 46.1929 20.25 47.9934V31.2224H14.1562V24.2849H20.25V18.9974C20.25 12.9824 23.8331 9.65991 29.3152 9.65991C31.9402 9.65991 34.6875 10.1287 34.6875 10.1287V16.0349H31.6613C28.68 16.0349 27.75 17.8851 27.75 19.7849V24.2849H34.4062L33.3422 31.2224H27.75V47.9934C39.2236 46.1929 48 36.2638 48 24.2849Z" fill="#1877F2"/>
<path d="M33.3422 31.2224L34.4062 24.2849H27.75V19.7849C27.75 17.8869 28.68 16.0349 31.6613 16.0349H34.6875V10.1287C34.6875 10.1287 31.9411 9.65991 29.3152 9.65991C23.8331 9.65991 20.25 12.9824 20.25 18.9974V24.2849H14.1562V31.2224H20.25V47.9934C22.7349 48.3821 25.2651 48.3821 27.75 47.9934V31.2224H33.3422Z" fill="white"/>
</g>
<defs>
<clipPath id="clip0_26_11666">
<rect width="48" height="48" fill="white" transform="translate(0 0.284912)"/>
</clipPath>
</defs>
</svg>
