<svg width="48" height="49" viewBox="0 0 48 49" fill="none" xmlns="http://www.w3.org/2000/svg">
<g clip-path="url(#clip0_26_11657)">
<path d="M47.532 24.8378C47.532 23.2063 47.3997 21.5661 47.1175 19.9611H24.48V29.203H37.4434C36.9055 32.1837 35.177 34.8205 32.6461 36.4961V42.4928H40.3801C44.9217 38.3127 47.532 32.1396 47.532 24.8378Z" fill="#4285F4"/>
<path d="M24.48 48.2866C30.9529 48.2866 36.4116 46.1613 40.3888 42.4927L32.6549 36.496C30.5031 37.9599 27.7252 38.7889 24.4888 38.7889C18.2275 38.7889 12.9187 34.5647 11.0139 28.8855H3.03296V35.0674C7.10718 43.1717 15.4056 48.2866 24.48 48.2866Z" fill="#34A853"/>
<path d="M11.0051 28.8855C9.99973 25.9047 9.99973 22.6771 11.0051 19.6964V13.5145H3.03298C-0.371021 20.2961 -0.371021 28.2858 3.03298 35.0673L11.0051 28.8855Z" fill="#FBBC04"/>
<path d="M24.48 9.78423C27.9016 9.73132 31.2086 11.0188 33.6866 13.3822L40.5387 6.53015C36.2 2.45592 30.4414 0.21598 24.48 0.286529C15.4055 0.286529 7.10718 5.40136 3.03296 13.5145L11.005 19.6964C12.901 14.0084 18.2187 9.78423 24.48 9.78423Z" fill="#EA4335"/>
</g>
<defs>
<clipPath id="clip0_26_11657">
<rect width="48" height="48" fill="white" transform="translate(0 0.284912)"/>
</clipPath>
</defs>
</svg>
