<svg width="48" height="49" viewBox="0 0 48 49" fill="none" xmlns="http://www.w3.org/2000/svg">
<g clip-path="url(#clip0_26_11670)">
<path d="M44.4567 0.284912H3.54333C2.60358 0.284912 1.70232 0.658227 1.03782 1.32273C0.373315 1.98723 0 2.8885 0 3.82825V44.7416C0 45.6813 0.373315 46.5826 1.03782 47.2471C1.70232 47.9116 2.60358 48.2849 3.54333 48.2849H44.4567C45.3964 48.2849 46.2977 47.9116 46.9622 47.2471C47.6267 46.5826 48 45.6813 48 44.7416V3.82825C48 2.8885 47.6267 1.98723 46.9622 1.32273C46.2977 0.658227 45.3964 0.284912 44.4567 0.284912ZM14.3067 41.1749H7.09V18.2516H14.3067V41.1749ZM10.6933 15.0749C9.87473 15.0703 9.07583 14.8233 8.39747 14.3651C7.71911 13.9069 7.19168 13.258 6.88175 12.5003C6.57183 11.7426 6.4933 10.9101 6.65606 10.1078C6.81883 9.30555 7.2156 8.56947 7.79631 7.99248C8.37702 7.41548 9.11563 7.02345 9.91893 6.86583C10.7222 6.70822 11.5542 6.7921 12.3099 7.10688C13.0656 7.42167 13.7111 7.95325 14.1649 8.63454C14.6188 9.31583 14.8606 10.1163 14.86 10.9349C14.8677 11.483 14.765 12.027 14.558 12.5345C14.351 13.0421 14.044 13.5027 13.6551 13.889C13.2663 14.2754 12.8037 14.5795 12.2948 14.7832C11.786 14.9869 11.2413 15.0862 10.6933 15.0749ZM40.9067 41.1949H33.6933V28.6716C33.6933 24.9782 32.1233 23.8382 30.0967 23.8382C27.9567 23.8382 25.8567 25.4516 25.8567 28.7649V41.1949H18.64V18.2682H25.58V21.4449H25.6733C26.37 20.0349 28.81 17.6249 32.5333 17.6249C36.56 17.6249 40.91 20.0149 40.91 27.0149L40.9067 41.1949Z" fill="#0A66C2"/>
</g>
<defs>
<clipPath id="clip0_26_11670">
<rect width="48" height="48" fill="white" transform="translate(0 0.284912)"/>
</clipPath>
</defs>
</svg>
