<svg width="866" height="1117" viewBox="0 0 866 1117" fill="none" xmlns="http://www.w3.org/2000/svg">
<g clip-path="url(#clip0_26_11465)" filter="url(#filter0_d_26_11465)">
<rect width="854" height="1117" fill="#F2F2F2"/>
<path d="M797.82 768.089H57V768.459H797.82V768.089Z" fill="#EBEBEB"/>
<path d="M183.799 782.194H134.727V782.565H183.799V782.194Z" fill="#EBEBEB"/>
<path d="M390.37 782.387H310.568V782.757H390.37V782.387Z" fill="#EBEBEB"/>
<path d="M242.146 789.84H213.714V790.21H242.146V789.84Z" fill="#EBEBEB"/>
<path d="M717.812 789.662H689.32V790.032H717.812V789.662Z" fill="#EBEBEB"/>
<path d="M676.118 789.662H631.239V790.032H676.118V789.662Z" fill="#EBEBEB"/>
<path d="M606.526 787.217H543.467V787.587H606.526V787.217Z" fill="#EBEBEB"/>
<path d="M408.149 702.008H122.059C119.818 702.004 117.67 701.111 116.087 699.525C114.503 697.939 113.614 695.789 113.614 693.548V291.386C113.634 289.158 114.531 287.027 116.113 285.457C117.694 283.887 119.831 283.004 122.059 283H408.149C410.393 283 412.545 283.891 414.132 285.478C415.718 287.065 416.609 289.216 416.609 291.46V693.548C416.609 695.792 415.718 697.943 414.132 699.53C412.545 701.117 410.393 702.008 408.149 702.008ZM122.059 283.296C119.916 283.3 117.863 284.154 116.349 285.671C114.835 287.188 113.984 289.243 113.984 291.386V693.548C113.984 695.691 114.835 697.746 116.349 699.263C117.863 700.78 119.916 701.634 122.059 701.637H408.149C410.294 701.634 412.349 700.78 413.865 699.264C415.382 697.747 416.235 695.692 416.239 693.548V291.386C416.235 289.242 415.382 287.186 413.865 285.67C412.349 284.154 410.294 283.3 408.149 283.296H122.059Z" fill="#EBEBEB"/>
<path d="M728.642 702.008H442.537C440.295 702.004 438.145 701.111 436.559 699.526C434.974 697.94 434.081 695.79 434.077 693.548V291.386C434.101 289.156 435.002 287.026 436.585 285.456C438.169 283.886 440.307 283.004 442.537 283H728.642C730.868 283.008 733.001 283.892 734.579 285.462C736.157 287.032 737.053 289.16 737.073 291.386V693.548C737.073 695.786 736.185 697.934 734.605 699.52C733.025 701.105 730.881 702 728.642 702.008ZM442.537 283.296C440.393 283.3 438.338 284.154 436.821 285.67C435.305 287.186 434.451 289.242 434.448 291.386V693.548C434.451 695.692 435.305 697.747 436.821 699.264C438.338 700.78 440.393 701.634 442.537 701.637H728.642C730.786 701.634 732.842 700.78 734.358 699.264C735.874 697.747 736.728 695.692 736.732 693.548V291.386C736.728 289.242 735.874 287.186 734.358 285.67C732.842 284.154 730.786 283.3 728.642 283.296H442.537Z" fill="#EBEBEB"/>
<path d="M504.781 768.089H546.741V559.326H504.781V768.089Z" fill="#E6E6E6"/>
<path d="M512.738 768.089H504.767V745.42H521.095L512.738 768.089Z" fill="#F0F0F0"/>
<path d="M661.599 768.089H703.559V559.326H661.599V768.089Z" fill="#E6E6E6"/>
<path d="M504.781 754.177H668.562V559.326H504.781V754.177Z" fill="#F0F0F0"/>
<path d="M510.96 687.947V725.833H583.99V687.947H510.96Z" fill="#E6E6E6"/>
<path d="M589.339 687.947V725.833H662.369V687.947H589.339Z" fill="#E6E6E6"/>
<path d="M618.631 694.288H633.077C636.183 694.29 639.257 693.658 642.111 692.43C644.964 691.202 647.537 689.404 649.671 687.147H602.036C604.17 689.404 606.743 691.202 609.596 692.43C612.45 693.658 615.524 694.29 618.631 694.288Z" fill="#F0F0F0"/>
<path d="M539.511 694.288H553.957C557.064 694.29 560.138 693.658 562.991 692.43C565.845 691.202 568.417 689.404 570.551 687.147H522.917C525.051 689.404 527.624 691.202 530.477 692.43C533.331 693.658 536.405 694.29 539.511 694.288Z" fill="#F0F0F0"/>
<path d="M510.945 629.052V666.938H583.975V629.052H510.945Z" fill="#E6E6E6"/>
<path d="M589.339 629.067V666.952H662.369V629.067H589.339Z" fill="#E6E6E6"/>
<path d="M618.631 635.393H633.077C636.182 635.387 639.254 634.748 642.105 633.515C644.955 632.282 647.525 630.481 649.656 628.222H602.036C604.169 630.483 606.741 632.285 609.594 633.518C612.448 634.751 615.522 635.389 618.631 635.393Z" fill="#F0F0F0"/>
<path d="M539.511 635.393H553.957C557.062 635.395 560.135 634.763 562.988 633.538C565.841 632.313 568.414 630.519 570.551 628.267H522.917C525.054 630.519 527.627 632.313 530.48 633.538C533.333 634.763 536.406 635.395 539.511 635.393Z" fill="#F0F0F0"/>
<path d="M510.96 570.172V608.057H583.99V570.172H510.96Z" fill="#E6E6E6"/>
<path d="M589.339 570.172V608.057H662.369V570.172H589.339Z" fill="#E6E6E6"/>
<path d="M618.631 576.513H633.077C636.183 576.515 639.257 575.882 642.111 574.654C644.964 573.426 647.537 571.629 649.671 569.371H602.036C604.17 571.629 606.743 573.426 609.596 574.654C612.45 575.882 615.524 576.515 618.631 576.513Z" fill="#F0F0F0"/>
<path d="M539.511 576.513H553.957C557.064 576.515 560.138 575.882 562.991 574.654C565.845 573.426 568.417 571.629 570.551 569.371H522.917C525.051 571.629 527.624 573.426 530.477 574.654C533.331 575.882 536.405 576.515 539.511 576.513Z" fill="#F0F0F0"/>
<path d="M660.59 768.089H668.562V745.42H652.234L660.59 768.089Z" fill="#F0F0F0"/>
<path d="M667.496 416.007L673.911 433.549H667.496L628.128 416.007H667.496Z" fill="#F5F5F5"/>
<path d="M673.911 416.007V433.549L634.558 416.007H673.911Z" fill="#E6E6E6"/>
<path d="M513.153 416.007L519.568 433.549H513.153L473.8 416.007H513.153Z" fill="#F5F5F5"/>
<path d="M519.568 416.007V433.549L480.216 416.007H519.568Z" fill="#E6E6E6"/>
<path d="M702.803 403.472H659.998V416.822H702.803V403.472Z" fill="#E6E6E6"/>
<path d="M447.19 416.837H659.998V403.487H447.19V416.837Z" fill="#F5F5F5"/>
<path d="M616.778 357.082C616.778 357.082 617.208 403.487 633.224 403.487C649.241 403.487 649.655 357.082 649.655 357.082H616.778Z" fill="#F0F0F0"/>
<path d="M517.464 388.345C517.464 388.345 518.59 403.472 561.676 403.472C604.762 403.472 605.888 388.345 605.888 388.345H517.464Z" fill="#F0F0F0"/>
<path d="M389.42 768.089H392.28L400.473 727.714L401.955 720.632L410.845 676.627H445.189L463.754 768.089H466.628L447.708 674.953C447.646 674.634 447.474 674.347 447.222 674.141C446.971 673.936 446.655 673.824 446.33 673.827H409.704C409.381 673.825 409.067 673.937 408.818 674.143C408.569 674.348 408.4 674.635 408.341 674.953L400.488 713.594L399.006 720.662L389.42 768.089Z" fill="#F0F0F0"/>
<path d="M334.407 768.089H337.267L355.847 676.627H390.102L398.992 720.662L400.474 727.714L408.682 768.089H411.541L401.911 720.677L400.429 713.639L392.576 674.998C392.5 674.686 392.324 674.408 392.075 674.205C391.827 674.002 391.519 673.885 391.199 673.872H354.706C354.381 673.869 354.065 673.98 353.813 674.186C353.562 674.391 353.39 674.679 353.328 674.998L334.407 768.089Z" fill="#F0F0F0"/>
<path d="M450.316 663.159H350.646C348.361 663.163 346.169 664.073 344.553 665.689C342.937 667.306 342.027 669.497 342.023 671.783V672.079C342.023 672.916 342.356 673.719 342.948 674.31C343.539 674.902 344.342 675.235 345.179 675.235H455.784C456.621 675.235 457.423 674.902 458.015 674.31C458.607 673.719 458.939 672.916 458.939 672.079V671.783C458.936 669.497 458.026 667.306 456.409 665.689C454.793 664.073 452.602 663.163 450.316 663.159Z" fill="#F0F0F0"/>
<path d="M289.395 768.089H292.255L300.448 727.714L301.93 720.632L310.82 676.627H345.075L363.7 768.089H366.574L347.653 674.953C347.591 674.634 347.419 674.347 347.168 674.141C346.916 673.936 346.6 673.824 346.275 673.827H309.679C309.356 673.825 309.042 673.937 308.793 674.143C308.544 674.348 308.375 674.635 308.316 674.953L300.463 713.594L298.981 720.662L289.395 768.089Z" fill="#F0F0F0"/>
<path d="M234.382 768.089H237.256L255.821 676.627H290.092L298.982 720.662L300.463 727.714L308.672 768.089H311.531L301.9 720.676L300.419 713.639L292.581 674.953C292.504 674.641 292.328 674.363 292.08 674.16C291.831 673.957 291.524 673.84 291.203 673.827H254.681C254.356 673.824 254.04 673.936 253.788 674.141C253.537 674.347 253.365 674.634 253.303 674.953L234.382 768.089Z" fill="#F0F0F0"/>
<path d="M350.365 663.159H250.621C248.335 663.163 246.144 664.073 244.528 665.689C242.911 667.306 242.001 669.497 241.998 671.783V672.079C241.998 672.916 242.33 673.719 242.922 674.31C243.514 674.902 244.316 675.235 245.153 675.235H355.773C356.186 675.235 356.596 675.153 356.978 674.994C357.36 674.836 357.707 674.603 357.999 674.31C358.291 674.016 358.522 673.668 358.679 673.286C358.836 672.903 358.916 672.493 358.914 672.079V671.783C358.91 669.51 358.01 667.33 356.41 665.715C354.81 664.101 352.638 663.183 350.365 663.159Z" fill="#F0F0F0"/>
<path d="M181.947 546.139H325.147V316.737H181.947L181.947 546.139Z" fill="#E6E6E6"/>
<path d="M172.597 546.139H320.776V316.737H172.597L172.597 546.139Z" fill="#F0F0F0"/>
<path d="M181.947 563.519H325.147V546.125H181.947V563.519Z" fill="#E6E6E6"/>
<path d="M157.011 563.519H305.19V546.125H157.011V563.519Z" fill="#F0F0F0"/>
<path d="M307.664 533.042V329.835H185.68V533.042H307.664Z" fill="#FAFAFA"/>
<path d="M308.716 533.027L265.808 329.835H229.507L272.416 533.027H308.716Z" fill="white"/>
<path d="M298.833 508.758C299.081 508.758 299.318 508.659 299.493 508.484C299.668 508.309 299.767 508.072 299.767 507.824V338.354C299.767 338.107 299.668 337.869 299.493 337.694C299.318 337.519 299.081 337.421 298.833 337.421C298.586 337.421 298.348 337.519 298.173 337.694C297.998 337.869 297.9 338.107 297.9 338.354V507.824C297.9 508.072 297.998 508.309 298.173 508.484C298.348 508.659 298.586 508.758 298.833 508.758Z" fill="#F0F0F0"/>
<path d="M264.622 533.027L221.714 329.835H207.564L250.458 533.027H264.622Z" fill="white"/>
<path d="M187.354 533.042V329.835H185.695V533.042H187.354Z" fill="#E6E6E6"/>
<path opacity="0.6" d="M169.486 339.895H312.686L313.901 334.917H170.701L169.486 339.895Z" fill="#F0F0F0"/>
<path opacity="0.6" d="M169.486 351.467H312.686L313.901 346.503H170.701L169.486 351.467Z" fill="#F0F0F0"/>
<path opacity="0.6" d="M169.486 363.053H312.686L313.901 358.075H170.701L169.486 363.053Z" fill="#F0F0F0"/>
<path opacity="0.6" d="M169.486 374.625H312.686L313.901 369.661H170.701L169.486 374.625Z" fill="#F0F0F0"/>
<path opacity="0.6" d="M169.486 386.211H312.686L313.901 381.248H170.701L169.486 386.211Z" fill="#F0F0F0"/>
<path opacity="0.6" d="M169.486 397.798H312.686L313.901 392.819H170.701L169.486 397.798Z" fill="#F0F0F0"/>
<path d="M427.41 835C586.067 835 714.685 827.491 714.685 818.228C714.685 808.965 586.067 801.456 427.41 801.456C268.752 801.456 140.134 808.965 140.134 818.228C140.134 827.491 268.752 835 427.41 835Z" fill="#F5F5F5"/>
<path d="M417.216 590.781H326.702C325.426 590.781 324.391 591.816 324.391 593.093V630.845C324.391 632.121 325.426 633.156 326.702 633.156H417.216C418.492 633.156 419.527 632.121 419.527 630.845V593.093C419.527 591.816 418.492 590.781 417.216 590.781Z" fill="#0034D1"/>
<path opacity="0.6" d="M417.216 590.781H326.702C325.426 590.781 324.391 591.816 324.391 593.093V630.845C324.391 632.121 325.426 633.156 326.702 633.156H417.216C418.492 633.156 419.527 632.121 419.527 630.845V593.093C419.527 591.816 418.492 590.781 417.216 590.781Z" fill="white"/>
<path opacity="0.1" d="M417.202 590.781H326.659C326.046 590.781 325.458 591.025 325.024 591.458C324.591 591.892 324.347 592.48 324.347 593.093V605.198L371.463 614.473C371.752 614.532 372.049 614.532 372.337 614.473L419.468 605.198V593.093C419.469 592.487 419.231 591.906 418.807 591.474C418.383 591.042 417.807 590.793 417.202 590.781Z" fill="black"/>
<path d="M419.187 575.283H391.54V570.646C391.536 568.729 390.773 566.892 389.418 565.537C388.062 564.182 386.226 563.419 384.309 563.415H359.61C357.694 563.419 355.857 564.182 354.502 565.537C353.147 566.892 352.384 568.729 352.38 570.646V575.283H324.747C324.142 575.283 323.562 575.524 323.134 575.952C322.706 576.379 322.466 576.96 322.466 577.565V600.397C322.469 600.924 322.653 601.434 322.987 601.842C323.322 602.249 323.786 602.529 324.303 602.634L371.523 611.924C371.812 611.969 372.107 611.969 372.397 611.924L419.617 602.634C420.135 602.529 420.601 602.25 420.938 601.843C421.275 601.436 421.462 600.925 421.469 600.397V577.565C421.469 576.96 421.228 576.379 420.8 575.952C420.373 575.524 419.792 575.283 419.187 575.283ZM357.877 570.646C357.881 570.186 358.064 569.745 358.388 569.419C358.712 569.092 359.15 568.905 359.61 568.897H384.309C384.769 568.905 385.208 569.092 385.532 569.419C385.856 569.745 386.039 570.186 386.043 570.646V575.283H357.892L357.877 570.646Z" fill="#0034D1"/>
<path opacity="0.6" d="M419.187 575.283H391.54V570.646C391.536 568.729 390.773 566.892 389.418 565.537C388.062 564.182 386.226 563.419 384.309 563.415H359.61C357.694 563.419 355.857 564.182 354.502 565.537C353.147 566.892 352.384 568.729 352.38 570.646V575.283H324.747C324.142 575.283 323.562 575.524 323.134 575.952C322.706 576.379 322.466 576.96 322.466 577.565V600.397C322.469 600.924 322.653 601.434 322.987 601.842C323.322 602.249 323.786 602.529 324.303 602.634L371.523 611.924C371.812 611.969 372.107 611.969 372.397 611.924L419.617 602.634C420.135 602.529 420.601 602.25 420.938 601.843C421.275 601.436 421.462 600.925 421.469 600.397V577.565C421.469 576.96 421.228 576.379 420.8 575.952C420.373 575.524 419.792 575.283 419.187 575.283ZM357.877 570.646C357.881 570.186 358.064 569.745 358.388 569.419C358.712 569.092 359.15 568.905 359.61 568.897H384.309C384.769 568.905 385.208 569.092 385.532 569.419C385.856 569.745 386.039 570.186 386.043 570.646V575.283H357.892L357.877 570.646Z" fill="white"/>
<path d="M376.841 605.687H367.092C365.881 605.687 364.899 606.668 364.899 607.879V614.043C364.899 615.254 365.881 616.236 367.092 616.236H376.841C378.052 616.236 379.034 615.254 379.034 614.043V607.879C379.034 606.668 378.052 605.687 376.841 605.687Z" fill="#0034D1"/>
<path opacity="0.3" d="M376.841 605.687H367.092C365.881 605.687 364.899 606.668 364.899 607.879V614.043C364.899 615.254 365.881 616.236 367.092 616.236H376.841C378.052 616.236 379.034 615.254 379.034 614.043V607.879C379.034 606.668 378.052 605.687 376.841 605.687Z" fill="white"/>
<path d="M417.216 318.219H326.702C325.426 318.219 324.391 319.253 324.391 320.53V358.282C324.391 359.559 325.426 360.594 326.702 360.594H417.216C418.492 360.594 419.527 359.559 419.527 358.282V320.53C419.527 319.253 418.492 318.219 417.216 318.219Z" fill="#0034D1"/>
<path opacity="0.6" d="M417.216 318.219H326.702C325.426 318.219 324.391 319.253 324.391 320.53V358.282C324.391 359.559 325.426 360.594 326.702 360.594H417.216C418.492 360.594 419.527 359.559 419.527 358.282V320.53C419.527 319.253 418.492 318.219 417.216 318.219Z" fill="white"/>
<path opacity="0.1" d="M417.202 318.219H326.659C326.046 318.219 325.458 318.462 325.024 318.896C324.591 319.329 324.347 319.917 324.347 320.53V332.635L371.463 341.91C371.752 341.969 372.049 341.969 372.337 341.91L419.468 332.635V320.53C419.469 319.925 419.231 319.343 418.807 318.911C418.383 318.479 417.807 318.23 417.202 318.219Z" fill="black"/>
<path d="M419.187 302.721H391.54V298.083C391.536 296.167 390.773 294.33 389.418 292.975C388.062 291.62 386.226 290.857 384.309 290.853H359.61C357.694 290.857 355.857 291.62 354.502 292.975C353.147 294.33 352.384 296.167 352.38 298.083V302.721H324.747C324.142 302.721 323.562 302.961 323.134 303.389C322.706 303.817 322.466 304.397 322.466 305.003V327.835C322.466 328.363 322.649 328.874 322.984 329.282C323.319 329.69 323.785 329.969 324.303 330.072L371.523 339.303C371.811 339.362 372.108 339.362 372.397 339.303L419.617 330.013C420.129 329.915 420.593 329.647 420.932 329.251C421.271 328.855 421.466 328.356 421.484 327.835V305.003C421.484 304.702 421.424 304.404 421.309 304.126C421.193 303.848 421.024 303.596 420.81 303.384C420.597 303.172 420.343 303.004 420.065 302.89C419.786 302.776 419.488 302.719 419.187 302.721ZM357.877 298.083C357.877 297.622 358.059 297.18 358.384 296.852C358.708 296.525 359.149 296.339 359.61 296.335H384.309C384.768 296.339 385.206 296.523 385.531 296.847C385.855 297.171 386.039 297.61 386.043 298.068V302.706H357.892L357.877 298.083Z" fill="#0034D1"/>
<path opacity="0.6" d="M419.187 302.721H391.54V298.083C391.536 296.167 390.773 294.33 389.418 292.975C388.062 291.62 386.226 290.857 384.309 290.853H359.61C357.694 290.857 355.857 291.62 354.502 292.975C353.147 294.33 352.384 296.167 352.38 298.083V302.721H324.747C324.142 302.721 323.562 302.961 323.134 303.389C322.706 303.817 322.466 304.397 322.466 305.003V327.835C322.466 328.363 322.649 328.874 322.984 329.282C323.319 329.69 323.785 329.969 324.303 330.072L371.523 339.303C371.811 339.362 372.108 339.362 372.397 339.303L419.617 330.013C420.129 329.915 420.593 329.647 420.932 329.251C421.271 328.855 421.466 328.356 421.484 327.835V305.003C421.484 304.702 421.424 304.404 421.309 304.126C421.193 303.848 421.024 303.596 420.81 303.384C420.597 303.172 420.343 303.004 420.065 302.89C419.786 302.776 419.488 302.719 419.187 302.721ZM357.877 298.083C357.877 297.622 358.059 297.18 358.384 296.852C358.708 296.525 359.149 296.339 359.61 296.335H384.309C384.768 296.339 385.206 296.523 385.531 296.847C385.855 297.171 386.039 297.61 386.043 298.068V302.706H357.892L357.877 298.083Z" fill="white"/>
<path d="M376.841 333.139H367.092C365.881 333.139 364.899 334.121 364.899 335.332V341.495C364.899 342.706 365.881 343.688 367.092 343.688H376.841C378.052 343.688 379.034 342.706 379.034 341.495V335.332C379.034 334.121 378.052 333.139 376.841 333.139Z" fill="#0034D1"/>
<path opacity="0.3" d="M376.841 333.139H367.092C365.881 333.139 364.899 334.121 364.899 335.332V341.495C364.899 342.706 365.881 343.688 367.092 343.688H376.841C378.052 343.688 379.034 342.706 379.034 341.495V335.332C379.034 334.121 378.052 333.139 376.841 333.139Z" fill="white"/>
<path d="M276.223 590.781H185.709C184.433 590.781 183.398 591.816 183.398 593.093V630.845C183.398 632.121 184.433 633.156 185.709 633.156H276.223C277.499 633.156 278.534 632.121 278.534 630.845V593.093C278.534 591.816 277.499 590.781 276.223 590.781Z" fill="#0034D1"/>
<path opacity="0.6" d="M276.223 590.781H185.709C184.433 590.781 183.398 591.816 183.398 593.093V630.845C183.398 632.121 184.433 633.156 185.709 633.156H276.223C277.499 633.156 278.534 632.121 278.534 630.845V593.093C278.534 591.816 277.499 590.781 276.223 590.781Z" fill="white"/>
<path opacity="0.1" d="M276.282 590.781H185.709C185.096 590.781 184.508 591.025 184.075 591.458C183.641 591.892 183.398 592.48 183.398 593.093V605.198L230.514 614.473C230.808 614.532 231.11 614.532 231.403 614.473L278.534 605.198V593.093C278.534 592.49 278.299 591.911 277.878 591.479C277.457 591.047 276.885 590.797 276.282 590.781Z" fill="black"/>
<path d="M278.179 575.283H250.532V570.646C250.528 568.729 249.765 566.892 248.41 565.537C247.054 564.182 245.218 563.419 243.301 563.415H218.617C216.701 563.419 214.864 564.182 213.509 565.537C212.154 566.892 211.391 568.729 211.387 570.646V575.283H183.739C183.134 575.283 182.554 575.524 182.126 575.952C181.698 576.379 181.458 576.96 181.458 577.565V600.397C181.46 600.924 181.645 601.434 181.979 601.842C182.314 602.249 182.778 602.529 183.295 602.634L230.515 611.924C230.809 611.969 231.109 611.969 231.404 611.924L278.624 602.634C279.14 602.529 279.605 602.249 279.939 601.842C280.274 601.434 280.458 600.924 280.461 600.397V577.565C280.461 576.96 280.22 576.379 279.792 575.952C279.365 575.524 278.784 575.283 278.179 575.283ZM216.869 570.646C216.876 570.184 217.063 569.744 217.389 569.418C217.715 569.092 218.156 568.905 218.617 568.897H243.301C243.762 568.905 244.203 569.092 244.529 569.418C244.855 569.744 245.042 570.184 245.05 570.646V575.283H216.898L216.869 570.646Z" fill="#0034D1"/>
<path opacity="0.6" d="M278.179 575.283H250.532V570.646C250.528 568.729 249.765 566.892 248.41 565.537C247.054 564.182 245.218 563.419 243.301 563.415H218.617C216.701 563.419 214.864 564.182 213.509 565.537C212.154 566.892 211.391 568.729 211.387 570.646V575.283H183.739C183.134 575.283 182.554 575.524 182.126 575.952C181.698 576.379 181.458 576.96 181.458 577.565V600.397C181.46 600.924 181.645 601.434 181.979 601.842C182.314 602.249 182.778 602.529 183.295 602.634L230.515 611.924C230.809 611.969 231.109 611.969 231.404 611.924L278.624 602.634C279.14 602.529 279.605 602.249 279.939 601.842C280.274 601.434 280.458 600.924 280.461 600.397V577.565C280.461 576.96 280.22 576.379 279.792 575.952C279.365 575.524 278.784 575.283 278.179 575.283ZM216.869 570.646C216.876 570.184 217.063 569.744 217.389 569.418C217.715 569.092 218.156 568.905 218.617 568.897H243.301C243.762 568.905 244.203 569.092 244.529 569.418C244.855 569.744 245.042 570.184 245.05 570.646V575.283H216.898L216.869 570.646Z" fill="white"/>
<path d="M235.833 605.687H226.084C224.873 605.687 223.891 606.668 223.891 607.879V614.043C223.891 615.254 224.873 616.236 226.084 616.236H235.833C237.044 616.236 238.026 615.254 238.026 614.043V607.879C238.026 606.668 237.044 605.687 235.833 605.687Z" fill="#0034D1"/>
<path opacity="0.3" d="M235.833 605.687H226.084C224.873 605.687 223.891 606.668 223.891 607.879V614.043C223.891 615.254 224.873 616.236 226.084 616.236H235.833C237.044 616.236 238.026 615.254 238.026 614.043V607.879C238.026 606.668 237.044 605.687 235.833 605.687Z" fill="white"/>
<path d="M276.223 318.219H185.709C184.433 318.219 183.398 319.253 183.398 320.53V358.282C183.398 359.559 184.433 360.594 185.709 360.594H276.223C277.499 360.594 278.534 359.559 278.534 358.282V320.53C278.534 319.253 277.499 318.219 276.223 318.219Z" fill="#0034D1"/>
<path opacity="0.6" d="M276.223 318.219H185.709C184.433 318.219 183.398 319.253 183.398 320.53V358.282C183.398 359.559 184.433 360.594 185.709 360.594H276.223C277.499 360.594 278.534 359.559 278.534 358.282V320.53C278.534 319.253 277.499 318.219 276.223 318.219Z" fill="white"/>
<path opacity="0.1" d="M276.282 318.219H185.709C185.096 318.219 184.508 318.462 184.075 318.896C183.641 319.329 183.398 319.917 183.398 320.53V332.635L230.514 341.91C230.807 341.97 231.11 341.97 231.403 341.91L278.534 332.635V320.53C278.534 319.927 278.299 319.348 277.878 318.916C277.457 318.484 276.885 318.234 276.282 318.219Z" fill="black"/>
<path d="M278.179 302.721H250.532V298.083C250.528 296.167 249.765 294.33 248.41 292.975C247.054 291.62 245.218 290.857 243.301 290.853H218.617C216.701 290.857 214.864 291.62 213.509 292.975C212.154 294.33 211.391 296.167 211.387 298.083V302.721H183.739C183.134 302.721 182.554 302.961 182.126 303.389C181.698 303.817 181.458 304.397 181.458 305.002V327.835C181.458 328.362 181.641 328.874 181.976 329.282C182.311 329.69 182.777 329.969 183.295 330.072L230.515 339.302C230.808 339.362 231.11 339.362 231.404 339.302L278.624 330.013C279.141 329.91 279.607 329.631 279.942 329.223C280.277 328.815 280.461 328.303 280.461 327.775V305.002C280.461 304.397 280.22 303.817 279.792 303.389C279.365 302.961 278.784 302.721 278.179 302.721ZM216.869 298.083C216.873 297.621 217.058 297.178 217.385 296.851C217.712 296.524 218.155 296.339 218.617 296.335H243.301C243.761 296.339 244.201 296.522 244.528 296.846C244.855 297.17 245.042 297.608 245.05 298.068V302.706H216.898L216.869 298.083Z" fill="#0034D1"/>
<path opacity="0.6" d="M278.179 302.721H250.532V298.083C250.528 296.167 249.765 294.33 248.41 292.975C247.054 291.62 245.218 290.857 243.301 290.853H218.617C216.701 290.857 214.864 291.62 213.509 292.975C212.154 294.33 211.391 296.167 211.387 298.083V302.721H183.739C183.134 302.721 182.554 302.961 182.126 303.389C181.698 303.817 181.458 304.397 181.458 305.002V327.835C181.458 328.362 181.641 328.874 181.976 329.282C182.311 329.69 182.777 329.969 183.295 330.072L230.515 339.302C230.808 339.362 231.11 339.362 231.404 339.302L278.624 330.013C279.141 329.91 279.607 329.631 279.942 329.223C280.277 328.815 280.461 328.303 280.461 327.775V305.002C280.461 304.397 280.22 303.817 279.792 303.389C279.365 302.961 278.784 302.721 278.179 302.721ZM216.869 298.083C216.873 297.621 217.058 297.178 217.385 296.851C217.712 296.524 218.155 296.339 218.617 296.335H243.301C243.761 296.339 244.201 296.522 244.528 296.846C244.855 297.17 245.042 297.608 245.05 298.068V302.706H216.898L216.869 298.083Z" fill="white"/>
<path d="M235.833 333.139H226.084C224.873 333.139 223.891 334.121 223.891 335.332V341.495C223.891 342.706 224.873 343.688 226.084 343.688H235.833C237.044 343.688 238.026 342.706 238.026 341.495V335.332C238.026 334.121 237.044 333.139 235.833 333.139Z" fill="#0034D1"/>
<path opacity="0.3" d="M235.833 333.139H226.084C224.873 333.139 223.891 334.121 223.891 335.332V341.495C223.891 342.706 224.873 343.688 226.084 343.688H235.833C237.044 343.688 238.026 342.706 238.026 341.495V335.332C238.026 334.121 237.044 333.139 235.833 333.139Z" fill="white"/>
<path d="M264.429 496.875H185.71C185.093 496.875 184.501 496.63 184.065 496.193C183.629 495.757 183.384 495.166 183.384 494.549V456.811C183.386 456.5 183.451 456.193 183.576 455.907C183.636 455.774 183.706 455.646 183.784 455.522C183.866 455.395 183.966 455.281 184.08 455.181C184.512 454.747 185.098 454.502 185.71 454.5H260.221C259.602 459.671 259.398 464.883 259.614 470.087C259.614 470.931 259.614 471.776 259.747 472.606C259.851 474.161 259.97 475.732 260.147 477.288C260.91 483.944 262.345 490.507 264.429 496.875Z" fill="#0034D1"/>
<path opacity="0.6" d="M264.429 496.875H185.71C185.093 496.875 184.501 496.63 184.065 496.193C183.629 495.757 183.384 495.166 183.384 494.549V456.811C183.386 456.5 183.451 456.193 183.576 455.907C183.636 455.774 183.706 455.646 183.784 455.522C183.866 455.395 183.966 455.281 184.08 455.181C184.512 454.747 185.098 454.502 185.71 454.5H260.221C259.602 459.671 259.398 464.883 259.614 470.087C259.614 470.931 259.614 471.776 259.747 472.606C259.851 474.161 259.97 475.732 260.147 477.288C260.91 483.944 262.345 490.507 264.429 496.875Z" fill="white"/>
<path opacity="0.1" d="M260.221 454.5C259.601 459.671 259.398 464.883 259.614 470.087C259.614 470.931 259.614 471.776 259.747 472.606L238.026 476.873L231.388 478.176C231.102 478.251 230.801 478.251 230.514 478.176L223.891 476.887L183.398 468.916V456.796C183.403 456.492 183.463 456.19 183.576 455.907C183.636 455.774 183.705 455.646 183.783 455.522C183.866 455.395 183.965 455.281 184.08 455.181C184.511 454.747 185.097 454.502 185.709 454.5H260.221Z" fill="black"/>
<path d="M263.318 439.002H250.546V434.365C250.539 432.447 249.772 430.61 248.415 429.255C247.057 427.901 245.219 427.138 243.301 427.134H218.617C216.699 427.134 214.86 427.896 213.504 429.252C212.148 430.608 211.387 432.447 211.387 434.365V439.002H183.739C183.44 439.002 183.143 439.061 182.866 439.176C182.589 439.29 182.338 439.459 182.126 439.67C181.914 439.882 181.746 440.134 181.631 440.411C181.517 440.687 181.458 440.984 181.458 441.284V464.101C181.458 464.633 181.643 465.148 181.98 465.559C182.318 465.969 182.788 466.25 183.31 466.353H183.398L223.892 474.339L230.515 475.628C230.803 475.687 231.1 475.687 231.389 475.628L238.027 474.324L259.614 470.072C259.398 464.869 259.602 459.656 260.222 454.485C260.837 449.25 261.872 444.072 263.318 439.002ZM216.869 434.365C216.876 433.905 217.064 433.466 217.39 433.142C217.717 432.818 218.157 432.635 218.617 432.631H243.301C243.76 432.635 244.198 432.819 244.523 433.143C244.847 433.467 245.031 433.906 245.035 434.365V439.002H216.884L216.869 434.365Z" fill="#0034D1"/>
<path opacity="0.6" d="M263.318 439.002H250.546V434.365C250.539 432.447 249.772 430.61 248.415 429.255C247.057 427.901 245.219 427.138 243.301 427.134H218.617C216.699 427.134 214.86 427.896 213.504 429.252C212.148 430.608 211.387 432.447 211.387 434.365V439.002H183.739C183.44 439.002 183.143 439.061 182.866 439.176C182.589 439.29 182.338 439.459 182.126 439.67C181.914 439.882 181.746 440.134 181.631 440.411C181.517 440.687 181.458 440.984 181.458 441.284V464.101C181.458 464.633 181.643 465.148 181.98 465.559C182.318 465.969 182.788 466.25 183.31 466.353H183.398L223.892 474.339L230.515 475.628C230.803 475.687 231.1 475.687 231.389 475.628L238.027 474.324L259.614 470.072C259.398 464.869 259.602 459.656 260.222 454.485C260.837 449.25 261.872 444.072 263.318 439.002ZM216.869 434.365C216.876 433.905 217.064 433.466 217.39 433.142C217.717 432.818 218.157 432.635 218.617 432.631H243.301C243.76 432.635 244.198 432.819 244.523 433.143C244.847 433.467 245.031 433.906 245.035 434.365V439.002H216.884L216.869 434.365Z" fill="white"/>
<path d="M235.833 469.405H226.084C224.873 469.405 223.891 470.387 223.891 471.598V477.762C223.891 478.973 224.873 479.954 226.084 479.954H235.833C237.044 479.954 238.026 478.973 238.026 477.762V471.598C238.026 470.387 237.044 469.405 235.833 469.405Z" fill="#0034D1"/>
<path opacity="0.3" d="M235.833 469.405H226.084C224.873 469.405 223.891 470.387 223.891 471.598V477.762C223.891 478.973 224.873 479.954 226.084 479.954H235.833C237.044 479.954 238.026 478.973 238.026 477.762V471.598C238.026 470.387 237.044 469.405 235.833 469.405Z" fill="white"/>
<path d="M467.696 633.141H558.209C559.486 633.141 560.521 632.107 560.521 630.83V593.078C560.521 591.801 559.486 590.766 558.209 590.766H467.696C466.419 590.766 465.384 591.801 465.384 593.078V630.83C465.384 632.107 466.419 633.141 467.696 633.141Z" fill="#0034D1"/>
<path opacity="0.6" d="M467.696 633.141H558.209C559.486 633.141 560.521 632.107 560.521 630.83V593.078C560.521 591.801 559.486 590.766 558.209 590.766H467.696C466.419 590.766 465.384 591.801 465.384 593.078V630.83C465.384 632.107 466.419 633.141 467.696 633.141Z" fill="white"/>
<path opacity="0.1" d="M467.711 590.781H558.21C558.823 590.781 559.41 591.025 559.844 591.458C560.277 591.892 560.521 592.48 560.521 593.093V605.197L513.345 614.473C513.057 614.532 512.76 614.532 512.471 614.473L465.34 605.197V593.093C465.34 592.784 465.402 592.478 465.522 592.194C465.642 591.91 465.817 591.652 466.038 591.437C466.259 591.221 466.521 591.052 466.808 590.94C467.096 590.827 467.402 590.773 467.711 590.781Z" fill="black"/>
<path d="M465.74 575.283H493.387V570.646C493.391 568.729 494.154 566.892 495.509 565.537C496.864 564.182 498.701 563.419 500.617 563.415H525.316C527.233 563.419 529.07 564.182 530.425 565.537C531.78 566.892 532.543 568.729 532.547 570.646V575.283H560.179C560.479 575.283 560.776 575.342 561.053 575.457C561.329 575.572 561.581 575.74 561.793 575.952C562.005 576.163 562.173 576.415 562.287 576.692C562.402 576.969 562.461 577.265 562.461 577.565V600.397C562.458 600.924 562.274 601.434 561.939 601.842C561.605 602.249 561.14 602.529 560.624 602.634L513.345 611.924C513.05 611.969 512.75 611.969 512.456 611.924L465.236 602.634C464.719 602.529 464.255 602.249 463.92 601.842C463.586 601.434 463.402 600.924 463.399 600.397V577.565C463.399 577.26 463.459 576.959 463.578 576.678C463.696 576.397 463.87 576.143 464.088 575.93C464.306 575.718 464.565 575.551 464.848 575.44C465.132 575.328 465.435 575.275 465.74 575.283ZM527.05 570.646C527.046 570.186 526.863 569.745 526.539 569.419C526.215 569.092 525.776 568.905 525.316 568.897H500.617C500.156 568.905 499.716 569.092 499.39 569.418C499.063 569.744 498.877 570.184 498.869 570.646V575.283H527.02L527.05 570.646Z" fill="#0034D1"/>
<path opacity="0.6" d="M465.74 575.283H493.387V570.646C493.391 568.729 494.154 566.892 495.509 565.537C496.864 564.182 498.701 563.419 500.617 563.415H525.316C527.233 563.419 529.07 564.182 530.425 565.537C531.78 566.892 532.543 568.729 532.547 570.646V575.283H560.179C560.479 575.283 560.776 575.342 561.053 575.457C561.329 575.572 561.581 575.74 561.793 575.952C562.005 576.163 562.173 576.415 562.287 576.692C562.402 576.969 562.461 577.265 562.461 577.565V600.397C562.458 600.924 562.274 601.434 561.939 601.842C561.605 602.249 561.14 602.529 560.624 602.634L513.345 611.924C513.05 611.969 512.75 611.969 512.456 611.924L465.236 602.634C464.719 602.529 464.255 602.249 463.92 601.842C463.586 601.434 463.402 600.924 463.399 600.397V577.565C463.399 577.26 463.459 576.959 463.578 576.678C463.696 576.397 463.87 576.143 464.088 575.93C464.306 575.718 464.565 575.551 464.848 575.44C465.132 575.328 465.435 575.275 465.74 575.283ZM527.05 570.646C527.046 570.186 526.863 569.745 526.539 569.419C526.215 569.092 525.776 568.905 525.316 568.897H500.617C500.156 568.905 499.716 569.092 499.39 569.418C499.063 569.744 498.877 570.184 498.869 570.646V575.283H527.02L527.05 570.646Z" fill="white"/>
<path d="M508.085 616.236H517.834C519.045 616.236 520.027 615.254 520.027 614.043V607.879C520.027 606.668 519.045 605.686 517.834 605.686H508.085C506.874 605.686 505.892 606.668 505.892 607.879V614.043C505.892 615.254 506.874 616.236 508.085 616.236Z" fill="#0034D1"/>
<path opacity="0.3" d="M508.085 616.236H517.834C519.045 616.236 520.027 615.254 520.027 614.043V607.879C520.027 606.668 519.045 605.686 517.834 605.686H508.085C506.874 605.686 505.892 606.668 505.892 607.879V614.043C505.892 615.254 506.874 616.236 508.085 616.236Z" fill="white"/>
<path d="M467.696 360.579H558.209C559.486 360.579 560.521 359.544 560.521 358.267V320.515C560.521 319.239 559.486 318.204 558.209 318.204H467.696C466.419 318.204 465.384 319.239 465.384 320.515V358.267C465.384 359.544 466.419 360.579 467.696 360.579Z" fill="#0034D1"/>
<path opacity="0.6" d="M467.696 360.579H558.209C559.486 360.579 560.521 359.544 560.521 358.267V320.515C560.521 319.239 559.486 318.204 558.209 318.204H467.696C466.419 318.204 465.384 319.239 465.384 320.515V358.267C465.384 359.544 466.419 360.579 467.696 360.579Z" fill="white"/>
<path opacity="0.1" d="M467.71 318.219H558.209C558.822 318.219 559.41 318.462 559.843 318.896C560.276 319.329 560.52 319.917 560.52 320.53V332.635L513.345 341.91C513.056 341.969 512.759 341.969 512.47 341.91L465.399 332.635V320.53C465.399 319.917 465.642 319.329 466.076 318.896C466.509 318.462 467.097 318.219 467.71 318.219Z" fill="black"/>
<path d="M465.74 302.721H493.387V298.083C493.391 296.167 494.154 294.33 495.509 292.975C496.864 291.62 498.701 290.857 500.617 290.853H525.316C526.27 290.847 527.216 291.03 528.099 291.39C528.982 291.751 529.786 292.282 530.463 292.954C531.14 293.626 531.678 294.425 532.046 295.305C532.414 296.185 532.604 297.129 532.606 298.083V302.721H560.239C560.844 302.721 561.424 302.961 561.852 303.389C562.28 303.817 562.52 304.397 562.52 305.002V327.835C562.52 328.362 562.337 328.874 562.002 329.282C561.667 329.69 561.201 329.969 560.683 330.072L513.345 339.302C513.051 339.362 512.749 339.362 512.456 339.302L465.236 330.013C464.718 329.91 464.252 329.631 463.917 329.223C463.582 328.815 463.399 328.303 463.399 327.775V305.002C463.399 304.698 463.459 304.396 463.578 304.115C463.696 303.835 463.87 303.58 464.088 303.368C464.306 303.155 464.565 302.988 464.848 302.877C465.132 302.766 465.435 302.713 465.74 302.721ZM527.05 298.083C527.05 297.622 526.868 297.18 526.543 296.852C526.218 296.525 525.778 296.339 525.316 296.335H500.617C500.158 296.339 499.717 296.522 499.391 296.846C499.064 297.17 498.877 297.608 498.869 298.068V302.706H527.02L527.05 298.083Z" fill="#0034D1"/>
<path opacity="0.6" d="M465.74 302.721H493.387V298.083C493.391 296.167 494.154 294.33 495.509 292.975C496.864 291.62 498.701 290.857 500.617 290.853H525.316C526.27 290.847 527.216 291.03 528.099 291.39C528.982 291.751 529.786 292.282 530.463 292.954C531.14 293.626 531.678 294.425 532.046 295.305C532.414 296.185 532.604 297.129 532.606 298.083V302.721H560.239C560.844 302.721 561.424 302.961 561.852 303.389C562.28 303.817 562.52 304.397 562.52 305.002V327.835C562.52 328.362 562.337 328.874 562.002 329.282C561.667 329.69 561.201 329.969 560.683 330.072L513.345 339.302C513.051 339.362 512.749 339.362 512.456 339.302L465.236 330.013C464.718 329.91 464.252 329.631 463.917 329.223C463.582 328.815 463.399 328.303 463.399 327.775V305.002C463.399 304.698 463.459 304.396 463.578 304.115C463.696 303.835 463.87 303.58 464.088 303.368C464.306 303.155 464.565 302.988 464.848 302.877C465.132 302.766 465.435 302.713 465.74 302.721ZM527.05 298.083C527.05 297.622 526.868 297.18 526.543 296.852C526.218 296.525 525.778 296.339 525.316 296.335H500.617C500.158 296.339 499.717 296.522 499.391 296.846C499.064 297.17 498.877 297.608 498.869 298.068V302.706H527.02L527.05 298.083Z" fill="white"/>
<path d="M508.085 343.673H517.834C519.045 343.673 520.027 342.692 520.027 341.481V335.317C520.027 334.106 519.045 333.124 517.834 333.124H508.085C506.874 333.124 505.892 334.106 505.892 335.317V341.481C505.892 342.692 506.874 343.673 508.085 343.673Z" fill="#0034D1"/>
<path opacity="0.3" d="M508.085 343.673H517.834C519.045 343.673 520.027 342.692 520.027 341.481V335.317C520.027 334.106 519.045 333.124 517.834 333.124H508.085C506.874 333.124 505.892 334.106 505.892 335.317V341.481C505.892 342.692 506.874 343.673 508.085 343.673Z" fill="white"/>
<path d="M479.549 496.875H558.224C558.838 496.871 559.426 496.624 559.859 496.188C560.292 495.752 560.535 495.163 560.535 494.549V456.811C560.533 456.5 560.467 456.193 560.342 455.907C560.288 455.772 560.219 455.642 560.135 455.522C560.052 455.395 559.953 455.281 559.839 455.181C559.626 454.965 559.372 454.794 559.092 454.677C558.813 454.56 558.512 454.499 558.209 454.5H483.712C484.332 459.671 484.535 464.883 484.319 470.087C484.319 470.931 484.319 471.776 484.186 472.606C484.097 474.161 483.964 475.732 483.786 477.288C483.038 483.943 481.618 490.505 479.549 496.875Z" fill="#0034D1"/>
<path opacity="0.6" d="M479.549 496.875H558.224C558.838 496.871 559.426 496.624 559.859 496.188C560.292 495.752 560.535 495.163 560.535 494.549V456.811C560.533 456.5 560.467 456.193 560.342 455.907C560.288 455.772 560.219 455.642 560.135 455.522C560.052 455.395 559.953 455.281 559.839 455.181C559.626 454.965 559.372 454.794 559.092 454.677C558.813 454.56 558.512 454.499 558.209 454.5H483.712C484.332 459.671 484.535 464.883 484.319 470.087C484.319 470.931 484.319 471.776 484.186 472.606C484.097 474.161 483.964 475.732 483.786 477.288C483.038 483.943 481.618 490.505 479.549 496.875Z" fill="white"/>
<path opacity="0.1" d="M483.712 454.5C484.332 459.671 484.535 464.883 484.319 470.087C484.319 470.931 484.319 471.776 484.186 472.606L505.937 476.873L512.574 478.176C512.861 478.251 513.162 478.251 513.448 478.176L520.071 476.887L560.565 468.916V456.796C560.56 456.492 560.5 456.19 560.387 455.907C560.333 455.772 560.263 455.642 560.179 455.522C560.097 455.395 559.997 455.281 559.883 455.181C559.67 454.965 559.417 454.794 559.137 454.677C558.857 454.56 558.557 454.499 558.253 454.5H483.712Z" fill="black"/>
<path d="M480.601 439.002H493.388V434.365C493.392 432.448 494.155 430.611 495.51 429.256C496.865 427.901 498.702 427.138 500.618 427.134H525.302C527.221 427.134 529.062 427.895 530.42 429.251C531.778 430.607 532.543 432.446 532.547 434.365V439.002H560.18C560.785 439.002 561.365 439.242 561.793 439.67C562.221 440.098 562.462 440.679 562.462 441.284V464.101C562.462 464.631 562.279 465.144 561.945 465.555C561.61 465.965 561.143 466.247 560.624 466.353H560.521L520.028 474.339L513.345 475.613C513.057 475.673 512.76 475.673 512.471 475.613L505.833 474.31L484.246 470.057C484.666 459.555 483.416 449.053 480.542 438.943L480.601 439.002ZM527.05 434.365C527.043 433.905 526.856 433.466 526.529 433.142C526.202 432.818 525.762 432.635 525.302 432.631H500.618C500.159 432.635 499.721 432.819 499.396 433.143C499.072 433.467 498.888 433.906 498.884 434.365V439.002H527.036L527.05 434.365Z" fill="#0034D1"/>
<path opacity="0.6" d="M480.601 439.002H493.388V434.365C493.392 432.448 494.155 430.611 495.51 429.256C496.865 427.901 498.702 427.138 500.618 427.134H525.302C527.221 427.134 529.062 427.895 530.42 429.251C531.778 430.607 532.543 432.446 532.547 434.365V439.002H560.18C560.785 439.002 561.365 439.242 561.793 439.67C562.221 440.098 562.462 440.679 562.462 441.284V464.101C562.462 464.631 562.279 465.144 561.945 465.555C561.61 465.965 561.143 466.247 560.624 466.353H560.521L520.028 474.339L513.345 475.613C513.057 475.673 512.76 475.673 512.471 475.613L505.833 474.31L484.246 470.057C484.666 459.555 483.416 449.053 480.542 438.943L480.601 439.002ZM527.05 434.365C527.043 433.905 526.856 433.466 526.529 433.142C526.202 432.818 525.762 432.635 525.302 432.631H500.618C500.159 432.635 499.721 432.819 499.396 433.143C499.072 433.467 498.888 433.906 498.884 434.365V439.002H527.036L527.05 434.365Z" fill="white"/>
<path d="M508.085 479.969H517.834C519.045 479.969 520.027 478.988 520.027 477.777V471.613C520.027 470.402 519.045 469.42 517.834 469.42H508.085C506.874 469.42 505.892 470.402 505.892 471.613V477.777C505.892 478.988 506.874 479.969 508.085 479.969Z" fill="#0034D1"/>
<path opacity="0.3" d="M508.085 479.969H517.834C519.045 479.969 520.027 478.988 520.027 477.777V471.613C520.027 470.402 519.045 469.42 517.834 469.42H508.085C506.874 469.42 505.892 470.402 505.892 471.613V477.777C505.892 478.988 506.874 479.969 508.085 479.969Z" fill="white"/>
<path d="M441.782 445.299H311.723C309.89 445.299 308.404 446.785 308.404 448.618V502.861C308.404 504.694 309.89 506.179 311.723 506.179H441.782C443.615 506.179 445.1 504.694 445.1 502.861V448.618C445.1 446.785 443.615 445.299 441.782 445.299Z" fill="#0034D1"/>
<path d="M394.489 435.609H359.003C356.313 435.605 353.733 434.535 351.831 432.632C349.928 430.73 348.858 428.15 348.854 425.46V416.348C348.858 413.657 349.928 411.078 351.831 409.175C353.733 407.273 356.313 406.202 359.003 406.198H394.489C397.18 406.198 399.762 407.268 401.665 409.171C403.568 411.074 404.638 413.656 404.638 416.348V425.415C404.644 426.752 404.385 428.076 403.878 429.313C403.371 430.549 402.624 431.674 401.681 432.621C400.738 433.568 399.617 434.319 398.383 434.832C397.148 435.345 395.825 435.609 394.489 435.609ZM359.003 413.651C358.289 413.659 357.606 413.945 357.1 414.449C356.593 414.952 356.303 415.634 356.292 416.348V425.415C356.292 426.142 356.581 426.84 357.095 427.354C357.609 427.868 358.306 428.156 359.033 428.156H394.518C395.245 428.156 395.942 427.868 396.456 427.354C396.97 426.84 397.259 426.142 397.259 425.415V416.348C397.259 415.621 396.97 414.924 396.456 414.41C395.942 413.895 395.245 413.607 394.518 413.607L359.003 413.651Z" fill="#0034D1"/>
<path opacity="0.2" d="M441.767 445.299H311.738C311.301 445.297 310.868 445.381 310.463 445.547C310.059 445.713 309.691 445.957 309.382 446.266C309.072 446.574 308.826 446.941 308.658 447.344C308.491 447.748 308.404 448.181 308.404 448.618V466.027L376.115 479.362C376.53 479.452 376.96 479.452 377.375 479.362L445.1 466.027V448.618C445.1 448.181 445.014 447.748 444.846 447.344C444.679 446.941 444.433 446.574 444.123 446.266C443.813 445.957 443.446 445.713 443.041 445.547C442.637 445.381 442.204 445.297 441.767 445.299Z" fill="black"/>
<path d="M445.19 462.279L377.345 475.613C376.924 475.688 376.493 475.688 376.071 475.613L308.227 462.279C307.481 462.131 306.81 461.731 306.327 461.145C305.843 460.559 305.577 459.823 305.575 459.063V426.319C305.575 425.889 305.659 425.463 305.824 425.066C305.989 424.669 306.23 424.308 306.534 424.004C306.838 423.7 307.199 423.459 307.596 423.294C307.993 423.129 308.419 423.045 308.849 423.045H444.597C445.027 423.045 445.453 423.129 445.85 423.294C446.247 423.459 446.608 423.7 446.912 424.004C447.216 424.308 447.458 424.669 447.622 425.066C447.787 425.463 447.871 425.889 447.871 426.319V459.123C447.857 459.877 447.582 460.603 447.093 461.179C446.604 461.754 445.932 462.142 445.19 462.279Z" fill="#0034D1"/>
<path d="M383.775 466.738H369.744C368.01 466.738 366.603 468.144 366.603 469.879V478.754C366.603 480.489 368.01 481.895 369.744 481.895H383.775C385.51 481.895 386.917 480.489 386.917 478.754V469.879C386.917 468.144 385.51 466.738 383.775 466.738Z" fill="#0034D1"/>
<path opacity="0.4" d="M383.775 466.738H369.744C368.01 466.738 366.603 468.144 366.603 469.879V478.754C366.603 480.489 368.01 481.895 369.744 481.895H383.775C385.51 481.895 386.917 480.489 386.917 478.754V469.879C386.917 468.144 385.51 466.738 383.775 466.738Z" fill="black"/>
<path d="M621.357 478.888C623.061 482.399 624.321 485.718 625.802 489.185C627.284 492.652 628.365 496.104 629.521 499.646C631.864 506.825 633.594 514.191 634.692 521.663C634.84 522.596 634.914 523.604 635.018 524.626L635.166 526.108C635.166 526.374 635.166 526.567 635.166 526.878V527.841C635.216 530.088 635.022 532.333 634.588 534.538C633.854 538.37 632.808 542.136 631.462 545.799C628.932 552.761 625.778 559.48 622.039 565.875L614.512 562.689C616.186 555.933 617.875 549.043 619.15 542.391C619.773 539.204 620.213 535.983 620.468 532.745C620.556 531.422 620.526 530.093 620.379 528.775L620.216 527.841L620.009 526.656C619.846 525.871 619.742 525.085 619.55 524.285C618.073 517.745 616.162 511.31 613.831 505.024C612.704 501.809 611.46 498.608 610.215 495.393C608.971 492.178 607.593 488.948 606.319 485.985L621.357 478.888Z" fill="#7F3E3B"/>
<path d="M614.838 560.719L609.059 566.349L621.668 572.276C621.668 572.276 624.72 566.942 622.616 562.111L614.838 560.719Z" fill="#7F3E3B"/>
<path d="M604.407 574.75L615.046 579.106L621.669 572.216L609.06 566.349L604.407 574.75Z" fill="#7F3E3B"/>
<path opacity="0.2" d="M388.606 568.675C409.572 566.327 429.371 557.815 445.499 544.216C461.628 530.616 473.362 512.539 479.218 492.272C485.074 472.004 484.789 450.454 478.399 430.349C472.009 410.243 459.801 392.483 443.319 379.314C426.836 366.146 406.819 358.161 385.798 356.368C364.778 354.575 343.698 359.055 325.223 369.242C306.748 379.428 291.709 394.864 282.006 413.597C272.303 432.331 268.373 453.52 270.712 474.487C272.266 488.414 276.548 501.898 283.314 514.17C290.08 526.441 299.198 537.259 310.146 546.006C321.094 554.752 333.658 561.256 347.121 565.146C360.583 569.036 374.68 570.235 388.606 568.675Z" fill="#0034D1"/>
<path opacity="0.1" d="M310.983 378.625L473.223 508.209C473.919 506.728 474.571 505.246 475.208 503.764C479.274 494.09 481.871 483.863 482.913 473.42L342.779 361.527C331.279 365.362 320.524 371.146 310.983 378.625Z" fill="white"/>
<path opacity="0.1" d="M273.557 435.417L426.077 557.281C440.569 549.723 453.13 538.936 462.792 525.752L296.226 392.642C285.491 404.974 277.735 419.609 273.557 435.417Z" fill="white"/>
<path d="M639.537 582.469C639.342 579.773 638.46 577.171 636.974 574.913C635.894 573.252 634.383 571.915 632.603 571.046L622.483 566.082C615.757 562.749 608.986 559.504 602.215 556.259C595.443 553.014 588.628 549.829 581.842 546.614C575.056 543.398 568.211 540.272 561.351 537.205C547.66 531.002 533.881 524.967 520.013 519.1C513.079 516.136 506.13 513.292 499.122 510.506C497.076 509.7 495.413 508.147 494.469 506.161C493.525 504.174 493.372 501.904 494.04 499.809C503.421 470.232 501.285 438.204 488.059 410.136C474.833 382.067 451.494 360.03 422.714 348.435C393.934 336.839 361.836 336.543 332.846 347.603C303.856 358.664 280.113 380.266 266.37 408.085C252.628 435.904 249.899 467.887 258.731 497.632C267.563 527.376 287.304 552.688 314.002 568.499C340.699 584.31 372.384 589.454 402.712 582.902C433.041 576.349 459.775 558.583 477.564 533.16C478.823 531.353 480.722 530.092 482.876 529.633C485.03 529.174 487.278 529.55 489.165 530.686C495.645 534.538 502.154 538.326 508.693 542.05C521.761 549.498 534.928 556.758 548.194 563.83C554.817 567.416 561.529 570.868 568.122 574.38C574.715 577.891 581.457 581.314 588.169 584.751C594.88 588.188 601.503 591.552 608.304 594.871L618.394 599.879C620.167 600.77 622.15 601.159 624.128 601.005C626.821 600.814 629.418 599.931 631.669 598.441C634.354 596.792 636.517 594.418 637.91 591.591C639.302 588.765 639.866 585.603 639.537 582.469ZM333.771 549.695C316.547 541.196 302.23 527.78 292.631 511.144C283.033 494.508 278.583 475.399 279.844 456.234C281.106 437.069 288.023 418.708 299.72 403.474C311.418 388.24 327.37 376.817 345.559 370.649C363.749 364.482 383.359 363.847 401.909 368.825C420.46 373.803 437.117 384.17 449.776 398.616C462.434 413.061 470.524 430.936 473.023 449.979C475.522 469.023 472.317 488.38 463.814 505.602C458.171 517.036 450.331 527.247 440.742 535.651C431.152 544.056 420.001 550.489 407.925 554.583C395.85 558.678 383.085 560.354 370.362 559.515C357.638 558.676 345.205 555.34 333.771 549.695Z" fill="#0034D1"/>
<path d="M565.484 433.09C565.484 433.965 565.025 434.676 564.447 434.676C563.869 434.676 563.41 433.965 563.41 433.09C563.41 432.216 563.869 431.49 564.447 431.49C565.025 431.49 565.484 432.201 565.484 433.09Z" fill="#263238"/>
<path d="M565.099 434.676C564.058 437.359 562.652 439.887 560.921 442.187C561.52 442.616 562.206 442.909 562.93 443.044C563.655 443.18 564.4 443.156 565.114 442.973L565.099 434.676Z" fill="#630F0F"/>
<path d="M568.596 428.201C568.704 428.198 568.808 428.161 568.894 428.097C568.98 428.032 569.043 427.942 569.076 427.839C569.109 427.737 569.108 427.627 569.076 427.524C569.043 427.422 568.979 427.332 568.893 427.267C568.238 426.777 567.476 426.448 566.67 426.309C565.864 426.17 565.036 426.224 564.255 426.467C564.185 426.486 564.12 426.52 564.064 426.566C564.007 426.612 563.962 426.669 563.929 426.733C563.896 426.798 563.877 426.869 563.873 426.941C563.87 427.014 563.881 427.086 563.907 427.154C563.933 427.221 563.973 427.283 564.025 427.334C564.076 427.385 564.137 427.425 564.205 427.452C564.273 427.478 564.345 427.489 564.418 427.486C564.49 427.482 564.561 427.463 564.625 427.43C565.247 427.245 565.904 427.209 566.542 427.325C567.181 427.441 567.783 427.705 568.3 428.097C568.383 428.165 568.488 428.202 568.596 428.201Z" fill="#263238"/>
<path d="M595.458 439.698C593.888 447.67 592.332 462.264 597.903 467.568C597.903 467.568 595.725 475.643 580.938 475.643C564.64 475.643 573.159 467.568 573.159 467.568C582.049 465.449 581.812 458.856 580.256 452.752L595.458 439.698Z" fill="#7F3E3B"/>
<path d="M600.762 462.575C601.992 462.975 600.392 470.294 600.392 470.294C600.392 470.294 598.362 475.406 573.145 473.628C571.204 473.48 571.945 466.457 573.797 465.435C579.768 462.175 596.792 461.271 600.762 462.575Z" fill="#263238"/>
<path d="M651.983 768.696C653.346 768.563 655.331 766.059 655.895 765.141C655.919 765.101 655.933 765.054 655.933 765.007C655.933 764.96 655.919 764.914 655.895 764.874C655.87 764.83 655.833 764.795 655.788 764.774C655.743 764.752 655.692 764.746 655.643 764.755C655.494 764.755 651.909 765.437 651.035 766.83C650.942 766.976 650.882 767.139 650.856 767.31C650.831 767.481 650.841 767.656 650.887 767.822C651.079 768.474 651.45 768.652 651.746 768.696H651.983ZM655.109 765.392C654.146 766.726 652.561 768.282 651.805 768.178C651.731 768.178 651.509 768.178 651.376 767.674C651.347 767.577 651.339 767.475 651.355 767.375C651.37 767.275 651.408 767.18 651.464 767.096C652.486 766.183 653.753 765.59 655.109 765.392Z" fill="#0034D1"/>
<path d="M654.96 765.393C655.225 765.37 655.488 765.326 655.746 765.259C655.789 765.245 655.829 765.22 655.86 765.186C655.891 765.153 655.913 765.111 655.923 765.067C655.932 765.021 655.928 764.973 655.913 764.929C655.897 764.885 655.87 764.845 655.835 764.815C655.746 764.726 653.345 762.681 651.716 762.844C651.519 762.857 651.328 762.911 651.155 763.003C650.981 763.095 650.829 763.223 650.708 763.378C650.568 763.512 650.481 763.692 650.462 763.884C650.443 764.077 650.494 764.271 650.604 764.43C651.138 765.274 653.479 765.541 654.96 765.393ZM655.079 764.874C653.597 765.052 651.434 764.756 651.019 764.148C651.019 764.148 650.901 763.955 651.108 763.689C651.191 763.591 651.293 763.511 651.408 763.452C651.522 763.394 651.647 763.358 651.775 763.348C653.003 763.518 654.153 764.049 655.079 764.874Z" fill="#0034D1"/>
<path d="M550.12 807.664C551.243 807.66 552.363 807.56 553.469 807.367C553.518 807.354 553.563 807.328 553.6 807.291C553.636 807.255 553.662 807.21 553.676 807.16C553.685 807.107 553.677 807.053 553.653 807.005C553.629 806.957 553.59 806.918 553.543 806.893C553.38 806.79 549.587 804.626 547.764 805.115C547.423 805.202 547.13 805.421 546.949 805.723C546.833 805.888 546.771 806.084 546.771 806.286C546.771 806.487 546.833 806.684 546.949 806.849C547.423 807.501 548.727 807.664 550.12 807.664ZM552.639 806.982C550.609 807.264 547.853 807.249 547.349 806.552C547.275 806.464 547.216 806.301 547.349 805.975C547.404 805.883 547.477 805.804 547.563 805.743C547.65 805.682 547.749 805.64 547.853 805.619C549.024 805.308 551.305 806.301 552.639 806.982Z" fill="#0034D1"/>
<path d="M553.35 807.368C553.404 807.383 553.46 807.383 553.513 807.368C553.547 807.339 553.574 807.302 553.592 807.261C553.61 807.22 553.619 807.175 553.617 807.131C553.617 807.012 553.306 804.078 551.928 802.938C551.724 802.767 551.487 802.64 551.233 802.564C550.978 802.487 550.71 802.463 550.446 802.493C549.735 802.567 549.543 802.923 549.483 803.219C549.291 804.449 551.898 806.805 553.202 807.397L553.35 807.368ZM550.698 802.923C551.029 802.932 551.347 803.052 551.602 803.264C552.424 804.203 552.941 805.371 553.084 806.612C551.735 805.812 549.972 803.96 550.12 803.219C550.12 803.219 550.12 802.982 550.624 802.938L550.698 802.923Z" fill="#0034D1"/>
<path d="M565.381 807.115H554.506L553.409 781.898H564.299L565.381 807.115Z" fill="#7F3E3B"/>
<path d="M665.406 757.169L656.916 763.97L635.314 748.976L643.819 742.175L665.406 757.169Z" fill="#7F3E3B"/>
<path d="M655.36 763.54L664.043 754.932C664.199 754.782 664.4 754.689 664.615 754.668C664.83 754.646 665.046 754.698 665.228 754.814L673.57 760.177C673.772 760.308 673.942 760.483 674.066 760.689C674.191 760.896 674.267 761.128 674.288 761.368C674.31 761.607 674.276 761.849 674.19 762.074C674.104 762.299 673.968 762.502 673.792 762.666C670.71 765.63 669.066 766.904 665.243 770.682C662.902 773.023 657.168 779.987 653.923 783.202C650.678 786.417 647.063 783.632 648.115 782.017C652.782 774.816 654.368 768.874 654.575 765.259C654.62 764.61 654.899 763.999 655.36 763.54Z" fill="#263238"/>
<path d="M554.565 805.856H566.418C566.633 805.855 566.842 805.928 567.009 806.063C567.176 806.198 567.292 806.387 567.336 806.597L569.485 816.272C569.539 816.505 569.539 816.746 569.486 816.979C569.432 817.212 569.327 817.429 569.177 817.615C569.027 817.8 568.837 817.95 568.62 818.051C568.404 818.152 568.168 818.202 567.929 818.198C563.632 818.198 557.439 817.887 552.046 817.887C545.749 817.887 540.311 818.228 532.918 818.228C528.473 818.228 527.214 813.709 529.08 813.294C537.6 811.442 544.549 811.235 551.898 806.701C552.69 806.176 553.614 805.883 554.565 805.856Z" fill="#263238"/>
<path d="M619.357 470.828C628.795 475.273 632.692 505.735 632.692 505.735L610.986 514.255C607.617 506.006 604.887 497.511 602.822 488.844C599.784 475.095 609.652 466.205 619.357 470.828Z" fill="#0034D1"/>
<path opacity="0.3" d="M619.357 470.828C628.795 475.273 632.692 505.735 632.692 505.735L610.986 514.255C607.617 506.006 604.887 497.511 602.822 488.844C599.784 475.095 609.652 466.205 619.357 470.828Z" fill="white"/>
<path opacity="0.2" d="M605.296 479.762C604.556 479.403 603.782 479.12 602.985 478.917C602.119 482.166 602.088 485.581 602.896 488.844C604.952 497.512 607.677 506.007 611.045 514.254L618.201 511.454C616.883 503.498 612.838 483.377 605.296 479.762Z" fill="black"/>
<path d="M556.417 470.591C556.417 470.591 544.831 483.674 555.765 564.675H613.994C614.394 555.785 608.778 512.136 617.401 470.028C610.962 468.789 604.449 467.968 597.903 467.568C589.662 467.094 581.401 467.094 573.16 467.568C567.509 468.138 561.911 469.148 556.417 470.591Z" fill="#0034D1"/>
<path opacity="0.3" d="M556.417 470.591C556.417 470.591 544.831 483.674 555.765 564.675H613.994C614.394 555.785 608.778 512.136 617.401 470.028C610.962 468.789 604.449 467.968 597.903 467.568C589.662 467.094 581.401 467.094 573.16 467.568C567.509 468.138 561.911 469.148 556.417 470.591Z" fill="white"/>
<path opacity="0.2" d="M568.167 487.955C565.529 480.043 559.188 477.51 552.728 482.206C551.424 489.881 550.505 502.253 551.557 521.87L562.922 521.766C562.922 521.766 572.063 499.734 568.167 487.955Z" fill="black"/>
<path d="M566.033 484.711C565.559 488.682 564.907 492.282 564.181 496.03C563.455 499.779 562.611 503.439 561.647 507.128C559.746 514.668 557.157 522.018 553.913 529.086C553.069 530.908 552.091 532.701 551.054 534.494C550.52 535.398 549.987 536.301 549.38 537.19C548.592 538.426 547.662 539.565 546.609 540.583C544.564 542.479 542.14 543.919 539.497 544.806C537.351 545.558 535.131 546.08 532.874 546.362C528.847 546.861 524.777 546.911 520.739 546.51C518.764 546.352 516.838 546.1 514.961 545.754C513.035 545.414 511.212 545.058 509.227 544.539L510.19 536.42C516.953 536.136 523.667 535.143 530.222 533.457C531.555 533.062 532.85 532.546 534.089 531.916C534.903 531.543 535.614 530.978 536.163 530.271C536.045 530.375 537.126 528.582 537.763 527.308C538.401 526.034 539.112 524.345 539.719 522.863C540.964 519.811 542.031 516.581 543.008 513.277C543.986 509.973 544.846 506.609 545.646 503.202C546.446 499.794 547.127 496.356 547.868 492.83C548.609 489.304 549.142 485.807 549.676 482.533L566.033 484.711Z" fill="#7F3E3B"/>
<path d="M570.967 478.577C574.034 488.518 561.588 518.151 561.588 518.151L535.378 511.558C536.982 502.192 539.683 493.046 543.423 484.311C551.868 465.82 567.277 466.59 570.967 478.577Z" fill="#0034D1"/>
<path opacity="0.3" d="M570.967 478.577C574.034 488.518 561.588 518.151 561.588 518.151L535.378 511.558C536.982 502.192 539.683 493.046 543.423 484.311C551.868 465.82 567.277 466.59 570.967 478.577Z" fill="white"/>
<path d="M510.56 536.464L498.233 536.153L504.159 548.969C504.159 548.969 509.167 549.636 513.286 542.865L517.628 537.694L512.634 536.687C511.951 536.553 511.257 536.479 510.56 536.464Z" fill="#7F3E3B"/>
<path d="M490.455 538.539L497.522 549.162L504.175 548.969L498.233 536.153L490.455 538.539Z" fill="#7F3E3B"/>
<path opacity="0.2" d="M553.424 781.913L553.973 794.907H564.863L564.3 781.913H553.424Z" fill="black"/>
<path opacity="0.2" d="M643.819 742.175L635.314 748.976L646.456 756.71L654.96 749.909L643.819 742.175Z" fill="black"/>
<path d="M594.836 431.164C594.184 441.951 594.362 448.292 588.909 453.833C580.731 462.16 567.411 457.241 564.833 446.425C562.506 436.735 563.973 420.733 574.523 416.422C576.849 415.46 579.383 415.11 581.883 415.406C584.383 415.701 586.765 416.633 588.802 418.112C590.84 419.59 592.464 421.566 593.52 423.852C594.577 426.137 595.03 428.654 594.836 431.164Z" fill="#7F3E3B"/>
<path d="M603.548 421.148C603.548 421.148 609.223 422.837 607.445 429.312C604.763 439.15 598.451 450.47 590.302 451.181C580.153 452.085 575.574 441.61 574.241 430.779C568.166 426.616 563.662 422.719 565.114 418.392C567.337 411.725 575.397 405.976 588.228 407.458C601.059 408.94 607.445 417.237 603.548 421.148Z" fill="#263238"/>
<path d="M580.419 433.001C580.222 435.677 579.15 438.212 577.367 440.217C574.996 442.825 572.507 441.195 572.092 438.024C571.722 435.15 572.493 430.334 575.397 428.897C578.301 427.46 580.612 429.771 580.419 433.001Z" fill="#7F3E3B"/>
<path d="M576.419 564.675C576.419 564.675 572.745 638.046 579.901 669.13C591.235 718.351 641.063 757.792 641.063 757.792L657.065 744.976C657.065 744.976 616.068 714.469 612.378 673.486C609.074 636.683 613.964 594.411 613.964 564.675H576.419Z" fill="#0034D1"/>
<path opacity="0.2" d="M576.419 564.675C576.419 564.675 572.745 638.046 579.901 669.13C591.235 718.351 641.063 757.792 641.063 757.792L657.065 744.976C657.065 744.976 616.068 714.469 612.378 673.486C609.074 636.683 613.964 594.411 613.964 564.675H576.419Z" fill="black"/>
<path opacity="0.2" d="M581.886 586.41C580.404 583.551 577.515 592.07 575.5 603.005C575.5 618.088 575.767 635.245 577.085 649.78C587.146 631.185 585.012 592.337 581.886 586.41Z" fill="black"/>
<path d="M633.803 754.636L639.878 759.347L658.354 744.368L652.812 739.345L633.803 754.636Z" fill="#2C6BDB"/>
<path opacity="0.4" d="M633.803 754.636L639.878 759.347L658.354 744.368L652.812 739.345L633.803 754.636Z" fill="#FAFAFA"/>
<path d="M555.765 564.675C555.765 564.675 539.378 634.164 538.222 667.352C536.933 704.586 549.912 792.388 549.912 792.388H568.359C568.359 792.388 570.626 703.905 571.456 669.99C572.345 633.023 594.036 564.675 594.036 564.675H555.765Z" fill="#0034D1"/>
<path opacity="0.2" d="M555.765 564.675C555.765 564.675 539.378 634.164 538.222 667.352C536.933 704.586 549.912 792.388 549.912 792.388H568.359C568.359 792.388 570.626 703.905 571.456 669.99C572.345 633.023 594.036 564.675 594.036 564.675H555.765Z" fill="black"/>
<path d="M546.371 785.039C546.283 785.039 547.409 792.699 547.409 792.699H569.841L570.448 785.869L546.371 785.039Z" fill="#2C6BDB"/>
<path opacity="0.4" d="M546.371 785.039C546.283 785.039 547.409 792.699 547.409 792.699H569.841L570.448 785.869L546.371 785.039Z" fill="#FAFAFA"/>
</g>
<defs>
<filter id="filter0_d_26_11465" x="-8" y="-9" width="874" height="1137" filterUnits="userSpaceOnUse" color-interpolation-filters="sRGB">
<feFlood flood-opacity="0" result="BackgroundImageFix"/>
<feColorMatrix in="SourceAlpha" type="matrix" values="0 0 0 0 0 0 0 0 0 0 0 0 0 0 0 0 0 0 127 0" result="hardAlpha"/>
<feOffset dx="2" dy="1"/>
<feGaussianBlur stdDeviation="5"/>
<feColorMatrix type="matrix" values="0 0 0 0 0.6512 0 0 0 0 0.66896 0 0 0 0 0.74 0 0 0 1 0"/>
<feBlend mode="normal" in2="BackgroundImageFix" result="effect1_dropShadow_26_11465"/>
<feBlend mode="normal" in="SourceGraphic" in2="effect1_dropShadow_26_11465" result="shape"/>
</filter>
<clipPath id="clip0_26_11465">
<rect width="854" height="1117" fill="white"/>
</clipPath>
</defs>
</svg>
