<svg width="30" height="31" viewBox="0 0 30 31" fill="none" xmlns="http://www.w3.org/2000/svg">
<path d="M6.25 6.53491H22.5C23.4946 6.53491 24.4484 6.93 25.1517 7.63326C25.8549 8.33652 26.25 9.29035 26.25 10.2849V21.5349C26.25 22.5295 25.8549 23.4833 25.1517 24.1866C24.4484 24.8898 23.4946 25.2849 22.5 25.2849H6.25C5.25544 25.2849 4.30161 24.8898 3.59835 24.1866C2.89509 23.4833 2.5 22.5295 2.5 21.5349V10.2849C2.5 9.29035 2.89509 8.33652 3.59835 7.63326C4.30161 6.93 5.25544 6.53491 6.25 6.53491ZM6.25 7.78491C5.625 7.78491 5.075 7.99741 4.65 8.37241L14.375 14.6599L24.1 8.37241C23.675 7.99741 23.125 7.78491 22.5 7.78491H6.25ZM14.375 16.1724L3.9125 9.38491C3.8125 9.65991 3.75 9.97241 3.75 10.2849V21.5349C3.75 22.198 4.01339 22.8338 4.48223 23.3027C4.95107 23.7715 5.58696 24.0349 6.25 24.0349H22.5C23.163 24.0349 23.7989 23.7715 24.2678 23.3027C24.7366 22.8338 25 22.198 25 21.5349V10.2849C25 9.97241 24.9375 9.65991 24.8375 9.38491L14.375 16.1724Z" fill="black"/>
</svg>
