<svg width="24" height="25" viewBox="0 0 24 25" fill="none" xmlns="http://www.w3.org/2000/svg">
<path fill-rule="evenodd" clip-rule="evenodd" d="M12.0001 2.03491C10.7403 2.03491 9.5321 2.53536 8.6413 3.42615C7.7505 4.31695 7.25006 5.52513 7.25006 6.78491C7.25006 8.04469 7.7505 9.25287 8.6413 10.1437C9.5321 11.0345 10.7403 11.5349 12.0001 11.5349C13.2598 11.5349 14.468 11.0345 15.3588 10.1437C16.2496 9.25287 16.7501 8.04469 16.7501 6.78491C16.7501 5.52513 16.2496 4.31695 15.3588 3.42615C14.468 2.53536 13.2598 2.03491 12.0001 2.03491ZM8.75006 6.78491C8.75006 5.92296 9.09247 5.09631 9.70196 4.48681C10.3115 3.87732 11.1381 3.53491 12.0001 3.53491C12.862 3.53491 13.6887 3.87732 14.2982 4.48681C14.9076 5.09631 15.2501 5.92296 15.2501 6.78491C15.2501 7.64687 14.9076 8.47352 14.2982 9.08301C13.6887 9.6925 12.862 10.0349 12.0001 10.0349C11.1381 10.0349 10.3115 9.6925 9.70196 9.08301C9.09247 8.47352 8.75006 7.64687 8.75006 6.78491ZM12.0001 13.0349C9.68706 13.0349 7.55506 13.5609 5.97606 14.4489C4.42006 15.3249 3.25006 16.6509 3.25006 18.2849V18.3869C3.24906 19.5489 3.24806 21.0069 4.52706 22.0489C5.15606 22.5609 6.03706 22.9259 7.22706 23.1659C8.41906 23.4079 9.97406 23.5349 12.0001 23.5349C14.0261 23.5349 15.5801 23.4079 16.7741 23.1659C17.9641 22.9259 18.8441 22.5609 19.4741 22.0489C20.7531 21.0069 20.7511 19.5489 20.7501 18.3869V18.2849C20.7501 16.6509 19.5801 15.3249 18.0251 14.4489C16.4451 13.5609 14.3141 13.0349 12.0001 13.0349ZM4.75006 18.2849C4.75006 17.4339 5.37206 16.5099 6.71106 15.7569C8.02706 15.0169 9.89506 14.5349 12.0011 14.5349C14.1051 14.5349 15.9731 15.0169 17.2891 15.7569C18.6291 16.5099 19.2501 17.4339 19.2501 18.2849C19.2501 19.5929 19.2101 20.3289 18.5261 20.8849C18.1561 21.1869 17.5361 21.4819 16.4761 21.6959C15.4191 21.9099 13.9741 22.0349 12.0001 22.0349C10.0261 22.0349 8.58006 21.9099 7.52406 21.6959C6.46406 21.4819 5.84406 21.1869 5.47406 20.8859C4.79006 20.3289 4.75006 19.5929 4.75006 18.2849Z" fill="black"/>
</svg>
