<svg width="29" height="29" viewBox="0 0 29 29" fill="none" xmlns="http://www.w3.org/2000/svg">
<path d="M24.1666 16.7183V14.7849C24.1666 14.2722 23.9629 13.7804 23.6003 13.4178C23.2377 13.0553 22.746 12.8516 22.2332 12.8516H2.89989C2.38713 12.8516 1.89538 13.0553 1.53281 13.4178C1.17024 13.7804 0.966553 14.2722 0.966553 14.7849V26.3849C0.966553 26.8977 1.17024 27.3894 1.53281 27.752C1.89538 28.1146 2.38713 28.3183 2.89989 28.3183H22.2332C22.746 28.3183 23.2377 28.1146 23.6003 27.752C23.9629 27.3894 24.1666 26.8977 24.1666 26.3849V24.4516M24.1666 16.7183H16.4332C15.4077 16.7183 14.4242 17.1256 13.6991 17.8508C12.9739 18.5759 12.5666 19.5594 12.5666 20.5849C12.5666 21.6104 12.9739 22.5939 13.6991 23.3191C14.4242 24.0442 15.4077 24.4516 16.4332 24.4516H24.1666M24.1666 16.7183C25.1921 16.7183 26.1756 17.1256 26.9007 17.8508C27.6258 18.5759 28.0332 19.5594 28.0332 20.5849C28.0332 21.6104 27.6258 22.5939 26.9007 23.3191C26.1756 24.0442 25.1921 24.4516 24.1666 24.4516M6.76655 12.8516V7.05159C6.76655 5.51333 7.37762 4.03808 8.46533 2.95037C9.55304 1.86266 11.0283 1.25159 12.5666 1.25159C14.1048 1.25159 15.5801 1.86266 16.6678 2.95037C17.7555 4.03808 18.3666 5.51333 18.3666 7.05159V12.8516M23.1999 20.5849H25.1332M19.3332 20.5849H21.2666M15.4666 20.5849H17.3999" stroke="black"/>
</svg>
